<svg width="66" height="55" viewBox="0 0 66 55" fill="none" xmlns="http://www.w3.org/2000/svg">
<path d="M65.2987 49.389L39.09 2.16024C37.2209 -0.720078 32.6807 -0.720078 30.8117 2.16024L24.3327 12.6005C23.9701 12.6005 23.5377 12.5308 23.182 12.5308C17.2749 12.5308 12.3093 15.8435 10.2938 20.6696C4.46344 20.9555 0 25.8513 0 31.9746C0 36.3683 2.51766 40.2529 6.12328 42.1289L1.65984 49.3262C0.362655 51.4115 1.87604 54.0756 4.32396 54.0756H62.6486C65.0965 54.1454 66.6099 51.4812 65.3127 49.396L65.2987 49.389ZM10.9354 25.0563C11.6538 25.0563 12.2326 25.2027 12.8812 25.4189C12.8812 25.4189 13.0277 25.4887 13.2439 25.4887C13.5298 25.4887 13.8227 25.4189 13.8227 24.9098C14.0389 20.5161 17.5678 17.6358 21.5291 16.9872C22.108 16.9175 22.6101 16.8408 23.182 16.8408C28.8729 16.8408 33.4758 21.4507 32.8272 27.281C32.6808 28.5782 32.4646 29.0106 32.1786 29.729C31.9624 30.2311 32.3948 30.4473 32.611 30.4473C35.854 30.4473 37.1442 32.7487 37.1442 34.9107C37.1442 37.0727 35.7075 38.9418 33.2526 38.9418H11.2214C10.2101 38.9418 9.27559 38.7256 8.41079 38.2932C6.03262 37.2122 4.37975 34.7643 4.37975 31.884C4.37975 28.1388 7.11361 25.0423 10.9285 25.0423L10.9354 25.0563Z" fill="url(#paint0_linear_2_182)"/>
<defs>
<linearGradient id="paint0_linear_2_182" x1="22.0592" y1="56.7188" x2="58.0875" y2="1.60928" gradientUnits="userSpaceOnUse">
<stop offset="0.05" stop-color="#32B888"/>
<stop offset="0.09" stop-color="#16B898"/>
<stop offset="0.17" stop-color="#0CA5BF"/>
<stop offset="0.28" stop-color="#467CBF"/>
<stop offset="0.36" stop-color="#5C7EBF"/>
<stop offset="0.44" stop-color="#9E78A7"/>
<stop offset="0.51" stop-color="#D37488"/>
<stop offset="0.56" stop-color="#F27073"/>
<stop offset="0.59" stop-color="#F2706E"/>
<stop offset="0.85" stop-color="#FEBE27"/>
</linearGradient>
</defs>
</svg>