<svg width="276" height="61" viewBox="0 0 276 61" fill="none" xmlns="http://www.w3.org/2000/svg">
<g clip-path="url(#clip0_1_30)">
<path d="M73.6535 55.7319L44.1764 2.42176C42.054 -0.802006 36.9446 -0.802006 34.8223 2.42176L27.512 14.216C27.1189 14.216 26.6473 14.1374 26.1757 14.1374C19.4942 14.1374 13.9132 17.833 11.6336 23.3369C5.03076 23.6515 0 29.1555 0 36.0748C0 41.0284 2.8298 45.4316 6.91729 47.5545L1.88653 55.6533C0.393028 58.0121 2.12235 61 4.87355 61H70.6664C73.4176 61.0786 75.147 58.0907 73.6535 55.7319ZM12.4197 28.2905C13.2057 28.2905 13.9132 28.4478 14.6206 28.6837C14.6206 28.6837 14.7779 28.7623 15.0137 28.7623C15.3281 28.7623 15.6425 28.6837 15.6425 28.1333C15.8783 23.1797 19.8872 19.9559 24.2891 19.1696C24.918 19.091 25.4682 19.0124 26.1757 19.0124C32.6213 19.0124 37.8093 24.2019 37.0232 30.8067C36.866 32.3006 36.6302 32.7724 36.3158 33.5587C36.08 34.1091 36.5516 34.3449 36.7874 34.3449C40.4033 34.3449 41.8968 36.9397 41.8968 39.3772C41.8968 41.8146 40.2461 43.9376 37.4949 43.9376H12.7341C11.6336 43.9376 10.5332 43.7017 9.58988 43.23C6.91729 42.0505 5.03076 39.2199 5.03076 35.9961C5.03076 31.7502 8.09638 28.2905 12.4197 28.2905Z" fill="url(#paint0_linear_1_30)"/>
<path d="M12.4197 28.2906C13.2057 28.2906 13.9132 28.4478 14.6206 28.6837C14.6206 28.6837 14.7779 28.7623 15.0137 28.7623C15.3281 28.7623 15.6425 28.6837 15.6425 28.1333C15.8783 23.1797 19.8872 19.9559 24.2891 19.1696C24.918 19.091 25.4682 19.0124 26.1757 19.0124C32.6213 19.0124 37.8093 24.2019 37.0232 30.8067C36.866 32.3006 36.6302 32.7724 36.3158 33.5587C36.08 34.1091 36.5516 34.3449 36.7874 34.3449C40.4033 34.3449 41.8968 36.9397 41.8968 39.3772C41.8968 41.8147 40.2461 43.9376 37.4949 43.9376H12.7341C11.6336 43.9376 10.5332 43.7017 9.58989 43.23C6.9173 42.0505 5.03076 39.2199 5.03076 35.9961C5.03076 31.7502 8.09638 28.2906 12.4197 28.2906Z" fill="white"/>
<path d="M84.4382 40.6273V38.7403C86.4505 39.8489 89.1938 40.588 92.1022 40.588C96.8971 40.588 98.9881 38.4572 98.9881 35.0133C98.9881 31.5693 97.0622 30.4214 93.5407 29.2734L91.324 28.495C87.0243 27.0639 84.8862 25.1768 84.8862 21.0331C84.8862 17.141 87.6767 14.1846 93.1634 14.1846C96.3155 14.1846 98.3671 14.963 99.8449 15.7021V17.6678C98.3278 16.8501 96.0325 16.111 93.0848 16.111C89.1073 16.111 87.1422 18.0374 87.1422 20.868C87.1422 23.9424 88.3684 25.2555 92.1808 26.4821L94.3975 27.2212C98.5793 28.6129 101.197 30.2562 101.197 34.8481C101.197 39.44 98.5321 42.5537 92.2201 42.5537C88.9423 42.5537 86.1989 41.6495 84.4303 40.6273H84.4382Z" fill="#211F54"/>
<path d="M104.679 32.2613V31.8131C104.679 24.7994 108.696 21.6071 113.404 21.6071C118.852 21.6071 121.351 24.9724 121.351 30.9954V32.222H106.841C106.841 38.0405 109.38 40.5409 114.465 40.5409C117.169 40.5409 119.095 39.9276 120.691 39.1098V40.7925C119.465 41.5316 117.248 42.4358 114.175 42.4358C107.863 42.4358 104.663 38.7481 104.663 32.2691L104.679 32.2613ZM106.896 30.5H119.15C119.15 25.743 117.264 23.3684 113.334 23.3684C110.181 23.3684 107.226 25.3734 106.904 30.5H106.896Z" fill="#211F54"/>
<path d="M125.706 21.9295H127.797V24.3041H127.923C129.149 22.991 131.405 21.6779 133.905 21.6779C134.313 21.6779 134.809 21.7172 135.092 21.8037V23.7694C134.644 23.6908 134.07 23.6436 133.74 23.6436C131.444 23.6436 129.314 24.6658 127.883 25.9002V42.0898H125.714V21.9216L125.706 21.9295Z" fill="#211F54"/>
<path d="M138.943 21.9688H140.995V23.6514H141.121C142.598 22.5821 144.729 21.5992 147.598 21.5992C152.149 21.5992 155.749 23.9738 155.749 31.6873V32.0961C155.749 39.3142 152.228 42.4279 146.568 42.4279C144.147 42.4279 142.308 41.7281 141.073 40.9969V48.2543H138.943V21.9688ZM153.532 32.3792V31.7659C153.532 25.3262 151.072 23.4863 147.095 23.4863C144.469 23.4863 142.3 24.3906 141.073 25.2476V39.1413C142.221 39.9197 144.147 40.6588 146.442 40.6588C150.828 40.6588 153.532 38.2842 153.532 32.3792Z" fill="#211F54"/>
<path d="M158.854 36.9318C158.854 33.4486 160.945 31.6008 164.875 31.1526L170.818 30.5V27.8738C170.818 24.4692 169.261 23.4863 165.653 23.4863C163.649 23.4863 162.006 23.8166 160.576 24.2254V22.6686C162.297 21.9688 164.184 21.5992 166.44 21.5992C170.621 21.5992 172.956 23.3212 172.956 27.3784V42.0977H171.156L170.991 40.2971H170.865C169.843 41.3665 167.996 42.4279 165.048 42.4279C161.401 42.4279 158.862 40.4229 158.862 36.9318H158.854ZM170.818 38.9368V32.0883L165.449 32.7016C162.415 33.0318 161.024 34.2584 161.024 36.8453C161.024 39.4322 162.784 40.7374 165.575 40.7374C167.831 40.7374 169.757 39.8804 170.818 38.9368Z" fill="#211F54"/>
<path d="M186.704 28.6522V27.9524C186.704 18.4856 191.664 14.1767 198.919 14.1767C201.993 14.1767 203.997 14.8293 205.64 15.6943V17.6207C203.714 16.7164 201.702 16.1031 198.794 16.1031C192.851 16.1031 189.078 19.6729 189.078 27.5436V28.6522C189.078 36.3578 191.947 40.5802 198.629 40.5802C202.15 40.5802 204.162 39.6366 205.844 38.7796V40.706C204.249 41.6102 201.906 42.5066 198.385 42.5066C190.847 42.5066 186.704 37.7102 186.704 28.6522Z" fill="#211F54"/>
<path d="M210.592 12.7457H212.801V42.0977H210.592V12.7457Z" fill="#211F54"/>
<path d="M217.234 32.3399V31.8052C217.234 25.2083 221.047 21.5992 226.211 21.5992C231.659 21.5992 235.227 25.0825 235.227 31.6873V32.1826C235.227 38.7796 231.415 42.4279 226.172 42.4279C220.929 42.4279 217.234 38.9447 217.234 32.3399ZM233.011 32.3792V31.6008C233.011 25.6172 230.063 23.3605 226.164 23.3605C222.265 23.3605 219.443 26.2305 219.443 31.6008V32.4185C219.443 38.2842 222.352 40.6588 226.243 40.6588C230.134 40.6588 233.003 37.8282 233.003 32.3792H233.011Z" fill="#211F54"/>
<path d="M239.527 36.8139V21.9767H241.657V36.4915C241.657 39.4873 242.97 40.5881 246.161 40.5881C248.417 40.5881 250.626 39.8489 252.599 38.6617V21.9767H254.769V42.1056H252.882L252.678 40.2185H252.552C250.422 41.5709 247.961 42.4751 245.587 42.4751C241.736 42.4751 239.519 40.6745 239.519 36.8139H239.527Z" fill="#211F54"/>
<path d="M259.233 32.4264V31.931C259.233 24.7129 263.006 21.5992 268.171 21.5992C270.836 21.5992 272.636 22.3383 273.87 23.1561V12.7457H276V42.0977H274.2L273.996 40.2971H273.87C272.478 41.5237 270.466 42.4279 267.518 42.4279C263.297 42.4279 259.241 39.8489 259.241 32.4264H259.233ZM273.862 38.6144V25.0039C272.714 24.0996 270.749 23.4863 268.493 23.4863C264.233 23.4863 261.442 25.6958 261.442 31.6873V32.3399C261.442 38.4493 264.186 40.6588 268.124 40.6588C270.749 40.6588 272.589 39.6759 273.862 38.6066V38.6144Z" fill="#211F54"/>
</g>
<defs>
<linearGradient id="paint0_linear_1_30" x1="24.9337" y1="63.9486" x2="65.5501" y2="1.82716" gradientUnits="userSpaceOnUse">
<stop offset="0.05" stop-color="#10C08A"/>
<stop offset="0.09" stop-color="#0FB999"/>
<stop offset="0.17" stop-color="#0EA5BF"/>
<stop offset="0.28" stop-color="#0B85FF"/>
<stop offset="0.36" stop-color="#567FD2"/>
<stop offset="0.44" stop-color="#9E78A7"/>
<stop offset="0.51" stop-color="#D27487"/>
<stop offset="0.56" stop-color="#F37173"/>
<stop offset="0.59" stop-color="#FF706C"/>
<stop offset="0.85" stop-color="#FFBF26"/>
</linearGradient>
<clipPath id="clip0_1_30">
<rect width="276" height="61" fill="white"/>
</clipPath>
</defs>
</svg>