<svg id="uuid-8c90b6e4-df83-4a4e-a0a9-a810b7528020" data-name="Capa 2" xmlns="http://www.w3.org/2000/svg" xmlns:xlink="http://www.w3.org/1999/xlink" viewBox="0 0 844.86 475.45" class="yaa5jrjy q55vljc2"><defs><linearGradient id="uuid-bf854a63-c1c7-472d-a82d-3cb6edbff530" data-name="Degradado sin nombre 510" x1="0.5" y1="61.34" x2="188.87" y2="61.34" gradientUnits="userSpaceOnUse"><stop offset="0" stop-color="#1a1c2b"></stop><stop offset="0.41" stop-color="#2c3662"></stop><stop offset="0.8" stop-color="#3c4d90"></stop><stop offset="1" stop-color="#4356a3"></stop></linearGradient><linearGradient id="uuid-a9d8c999-c84c-4cd1-87d7-369836f37fef" data-name="Degradado sin nombre 243" x1="632.66" y1="405.11" x2="844.86" y2="405.11" gradientUnits="userSpaceOnUse"><stop offset="0" stop-color="#37a373"></stop><stop offset="0.34" stop-color="#25b783"></stop><stop offset="0.72" stop-color="#17c891"></stop><stop offset="1" stop-color="#13cf96"></stop></linearGradient><linearGradient id="uuid-abdb06d9-fc26-4661-8be0-73556e3d441d" x1="207.62" y1="279.16" x2="632.66" y2="279.16" gradientUnits="userSpaceOnUse"><stop offset="0" stop-color="#fa0"></stop><stop offset="1" stop-color="#ffe95c"></stop></linearGradient><linearGradient id="uuid-498ddcda-ba6d-438e-b1ea-7195901902b2" x1="-125.72" y1="405.78" x2="812.24" y2="405.78" gradientUnits="userSpaceOnUse"><stop offset="0" stop-color="#ff4000"></stop><stop offset="0.2" stop-color="#ff5c00"></stop><stop offset="0.56" stop-color="#f80"></stop><stop offset="0.84" stop-color="#ffa300"></stop><stop offset="1" stop-color="#ffae00"></stop></linearGradient><linearGradient id="uuid-409e5669-69f3-4f4b-8615-dcda22388943" data-name="Degradado sin nombre 161" x1="361.54" y1="167.64" x2="808.07" y2="167.64" gradientUnits="userSpaceOnUse"><stop offset="0" stop-color="#e55356"></stop><stop offset="0.19" stop-color="#d54a6b"></stop><stop offset="0.58" stop-color="#ae34a2"></stop><stop offset="0.99" stop-color="#811be2"></stop></linearGradient><linearGradient id="uuid-9885ef6d-593f-4e5e-a827-1d86a8e7352b" data-name="Degradado sin nombre 405" x1="58.48" y1="416.01" x2="342.62" y2="79.5" gradientUnits="userSpaceOnUse"><stop offset="0" stop-color="#ffd7d4"></stop><stop offset="0.53" stop-color="#efeae9"></stop><stop offset="0.99" stop-color="#dfffff"></stop></linearGradient><linearGradient id="uuid-3bc1ff26-5eb9-44df-8503-35f34c9a0ff0" data-name="Degradado sin nombre 553" x1="0.5" y1="237.97" x2="633.65" y2="237.97" gradientUnits="userSpaceOnUse"><stop offset="0" stop-color="#faf8ed"></stop><stop offset="0.99" stop-color="#eee7d9"></stop></linearGradient></defs><g id="uuid-3f6e5da1-9ce6-4d45-9571-70b56c360d66" data-name="Layer 7"><g><path d="M632.66,334.77v1.35h-.01c.01-.45,.01-.9,.01-1.35Z" style="fill:none;stroke:#000;stroke-miterlimit:10"></path><path d="M188.87,.5C164.11,69.63,89.44,120.29,.5,122.19V.5H188.87Z" style="fill:none;stroke:#000;stroke-miterlimit:10"></path><path d="M188.87,.5C164.11,69.63,89.44,120.29,.5,122.19V.5H188.87Z" style="fill:url(#uuid-bf854a63-c1c7-472d-a82d-3cb6edbff530)"></path><path d="M844.86,334.77v140.68h-72.98c0-.69-.01-1.38-.03-2.08-.66-27.92-9.6-53.95-24.45-75.67-19.09-27.91-47.95-48.71-81.58-57.28-9.16-2.34-18.67-3.76-28.44-4.18-1.58-.07-3.15-.11-4.72-.12v-1.35h212.2Z" style="fill:url(#uuid-a9d8c999-c84c-4cd1-87d7-369836f37fef)"></path><path d="M158.7,346.54c-15.7-9.79-34.25-15.44-54.11-15.44-6.74,0-13.33,.65-19.71,1.89-28.9,5.63-53.45,23.39-68.15,47.78-9.31,15.43-14.66,33.52-14.66,52.86,0,14.9,3.17,29.05,8.88,41.82H198.23c1.6-3.67,3.03-7.55,4.25-11.57,2.53-8.32,4.16-17.21,4.55-26.11,.03-.47,.04-.95,.05-1.42,.03-.91,.04-1.81,.04-2.72,0-36.76-19.35-69-48.42-87.09Zm-16.07,102.08c-.74,1.86-1.6,3.65-2.58,5.36-.66,1.14-1.37,2.25-2.13,3.32-.19,.26-.38,.53-.58,.79-.39,.53-.79,1.04-1.21,1.55-.42,.5-.85,1-1.29,1.48-.44,.48-.89,.96-1.35,1.42-6.95,6.94-16.39,11.4-26.86,11.92h-.1c-.63,.03-1.28,.05-1.93,.05h-.02c-7.1,0-13.77-1.81-19.58-5-.05-.01-.09-.04-.13-.07-3.28-1.81-6.29-4.05-8.94-6.66-.25-.24-.49-.49-.74-.74-.97-1-1.89-2.06-2.75-3.16-.22-.27-.43-.55-.64-.83-.42-.56-.82-1.14-1.21-1.72-.18-.26-.35-.52-.51-.78-.34-.53-.66-1.06-.97-1.6-.23-.41-.46-.82-.68-1.24-.44-.83-.85-1.68-1.23-2.54-.19-.43-.37-.86-.55-1.3-.24-.59-.46-1.18-.67-1.78-1.47-4.21-2.27-8.74-2.27-13.46,0-1.2,.05-2.4,.16-3.58,.05-.58,.11-1.17,.19-1.75,.15-1.17,.35-2.31,.6-3.44s.54-2.25,.88-3.34c.17-.55,.35-1.09,.54-1.63,.15-.43,.31-.85,.48-1.27,.37-.95,.79-1.89,1.23-2.8,.29-.61,.6-1.21,.93-1.81,1.46-2.67,3.21-5.15,5.21-7.41,.45-.5,.9-.99,1.37-1.47,.31-.33,.63-.65,.95-.95,2.57-2.48,5.47-4.62,8.62-6.36,5.84-3.23,12.56-5.06,19.71-5.06,.79,0,1.57,.02,2.34,.07,10.41,.59,19.78,5.07,26.67,12.01,4.13,4.15,7.37,9.19,9.42,14.8,.22,.62,.44,1.25,.63,1.89,.2,.64,.38,1.28,.55,1.93s.32,1.31,.45,1.97c.07,.33,.13,.66,.19,1,.12,.66,.23,1.34,.31,2.02,.22,1.69,.33,3.42,.33,5.18,0,5.29-1,10.35-2.84,14.99Z" style="fill:#0068ff"></path><path d="M65.99,447.09c.21,.6,.43,1.19,.66,1.78-.24-.59-.46-1.18-.67-1.78-1.47-4.21-2.27-8.74-2.27-13.46s.84-9.44,2.37-13.74c-1.53,4.3-2.36,8.92-2.36,13.74s.8,9.25,2.27,13.46Z" style="fill:#0068ff"></path><path d="M66.65,448.87c.71,1.75,1.53,3.45,2.46,5.08-.93-1.63-1.76-3.33-2.46-5.08Z" style="fill:#0068ff"></path><path d="M75.3,405.13c-3.74,3.84-6.73,8.41-8.74,13.49,2-5.08,4.99-9.66,8.74-13.49Z" style="fill:#0068ff"></path><path d="M70.59,456.33c1.56,2.33,3.35,4.49,5.34,6.45-1.99-1.95-3.79-4.12-5.34-6.45Z" style="fill:#0068ff"></path><path d="M145.46,433.63c0,11.29-4.58,21.51-11.97,28.91-6.95,6.94-16.39,11.4-26.86,11.92h-.1l-1.93,.05h-.02c-7.1,0-13.77-1.81-19.58-5-.05-.01-.09-.04-.13-.07-3.28-1.81-6.29-4.05-8.94-6.66-1.99-1.95-3.79-4.12-5.34-6.45-.18-.26-.35-.52-.51-.78-.33-.53-.66-1.06-.97-1.6-.93-1.63-1.76-3.33-2.46-5.08-.24-.59-.46-1.18-.67-1.78-1.47-4.21-2.27-8.74-2.27-13.46s.84-9.44,2.37-13.74c.15-.43,.31-.85,.48-1.27,2-5.08,4.99-9.66,8.74-13.49,.31-.32,.63-.64,.95-.95,2.57-2.48,5.47-4.62,8.62-6.36,5.84-3.23,12.56-5.06,19.71-5.06,.79,0,1.57,.02,2.34,.07,10.41,.59,19.78,5.07,26.67,12.01,7.34,7.38,11.87,17.56,11.87,28.79Z" style="fill:#ffd7d4"></path><path d="M804.03,315.27c1.88,6.19,2.91,12.73,2.99,19.5h-141.36c.08-6.78,1.12-13.32,2.99-19.51,0-.02,.01-.03,.01-.05,.58-1.94,1.25-3.85,1.99-5.72,.01-.02,.01-.03,.02-.05,5.26-11.3,17.47-21.38,28.2-33.72,1.2-1.38,2.38-2.87,3.53-4.44,17.99-24.66,17.99-58.48,0-83.14-1.15-1.57-2.33-3.06-3.53-4.44-10.73-12.34-22.94-22.42-28.2-33.72-.01-.02-.01-.03-.02-.05-.74-1.87-1.41-3.78-1.99-5.72,0-.02-.01-.03-.01-.05-2.23-7.39-3.28-15.29-2.93-23.49,1.57-36.96,31.94-66.72,68.92-67.59,39.83-.94,72.39,31.06,72.39,70.67,0,7.09-1.04,13.94-3,20.4-.54,1.85-1.17,3.67-1.87,5.45-.01,.02-.02,.05-.03,.07-4.9,11.27-14.94,20.64-24.33,31.34-.42,.48-.85,.98-1.27,1.49-22.65,27.23-22.65,67.19,0,94.42,.42,.51,.85,1.01,1.27,1.49,9.39,10.7,19.43,20.07,24.33,31.34,0,.02,.02,.05,.03,.07,.7,1.78,1.33,3.6,1.87,5.45Z" style="fill:#e55356"></path><path d="M632.66,334.77c0,.45,0,.9-.01,1.35h-.66c-8.63-.05-17.07,.68-25.27,2.13-5.48,.96-10.85,2.24-16.09,3.82-.04,0-.06,.02-.1,.02-3.86,1.16-7.66,2.49-11.38,3.96-.03,.02-.07,.03-.1,.05-14.42,6.71-27.84,19.11-42.09,32.78-7.97,7.63-16.2,15.67-25,23.32-2.74,2.39-5.7,4.74-8.84,7.03-39.99,29.17-92.08,34.57-136.54,16.18-10.09-4.16-19.79-9.56-28.86-16.18-3.14-2.29-6.1-4.64-8.84-7.03-8.8-7.65-17.03-15.69-25-23.32-14.25-13.67-27.67-26.07-42.09-32.78-.03-.02-.07-.03-.1-.05-3.72-1.47-7.52-2.8-11.38-3.96-.04,0-.06-.02-.1-.02-12.86-3.88-26.49-5.96-40.61-5.96-.66,0-1.32,0-1.98,0v-2.57c.43-77.54,42.4-145.24,104.78-182,24.75-14.59,52.72-24.31,82.59-27.82,8.25-.98,16.64-1.48,25.15-1.48s16.9,.5,25.15,1.48c69.76,8.22,129.17,50.23,161.43,109.21,15.67,28.65,24.93,61.3,25.86,96.03,.05,1.93,.08,3.86,.08,5.8Z" style="fill:url(#uuid-abdb06d9-fc26-4661-8be0-73556e3d441d)"></path><path d="M771.88,475.45H207.62v-139.33c.66,0,1.32,0,1.98,0,14.12,0,27.75,2.08,40.61,5.96,.04,0,.06,.02,.1,.02,3.86,1.16,7.66,2.49,11.38,3.96,.03,.02,.07,.03,.1,.05,14.42,6.71,27.84,19.11,42.09,32.78,7.97,7.63,16.2,15.67,25,23.32,2.74,2.39,5.7,4.74,8.84,7.03,9.07,6.62,18.77,12.02,28.86,16.18,44.46,18.39,96.55,12.99,136.54-16.18,3.14-2.29,6.1-4.64,8.84-7.03,8.8-7.65,17.03-15.69,25-23.32,14.25-13.67,27.67-26.07,42.09-32.78,.03-.02,.07-.03,.1-.05,3.72-1.47,7.52-2.8,11.38-3.96,.04,0,.06-.02,.1-.02,5.24-1.58,10.61-2.86,16.09-3.82,8.2-1.45,16.64-2.18,25.27-2.13h.67c1.57,.01,3.14,.05,4.72,.12,9.77,.42,19.28,1.84,28.44,4.18,33.63,8.57,62.49,29.37,81.58,57.28,14.85,21.72,23.79,47.75,24.45,75.67,.02,.7,.03,1.39,.03,2.08Z" style="fill:url(#uuid-498ddcda-ba6d-438e-b1ea-7195901902b2)"></path><path d="M844.86,.5V334.77h-37.84c-.08-6.77-1.11-13.31-2.99-19.5-.54-1.85-1.17-3.67-1.87-5.45-.01-.02-.02-.05-.03-.07-4.9-11.27-14.94-20.64-24.33-31.34-.42-.48-.85-.98-1.27-1.49-22.65-27.23-22.65-67.19,0-94.42,.42-.51,.85-1.01,1.27-1.49,9.39-10.7,19.43-20.07,24.33-31.34,0-.02,.02-.05,.03-.07,.76-1.76,1.39-3.57,1.88-5.44h-.01c1.96-6.47,3-13.32,3-20.41,0-39.61-32.56-71.61-72.39-70.67-36.98,.87-67.35,30.63-68.92,67.59-.35,8.2,.7,16.1,2.93,23.49,0,.02,.01,.03,.01,.05,.45,1.95,1.12,3.85,1.99,5.72,.01,.02,.01,.03,.02,.05,5.26,11.3,17.47,21.38,28.2,33.72,1.2,1.38,2.38,2.87,3.53,4.44,17.99,24.66,17.99,58.48,0,83.14-1.15,1.57-2.33,3.06-3.53,4.44-10.73,12.34-22.94,22.42-28.2,33.72-.01,.02-.01,.03-.02,.05-.74,1.87-1.41,3.78-1.99,5.72,0,.02-.01,.03-.01,.05-1.87,6.19-2.91,12.73-2.99,19.51h-33c0-1.94-.03-3.87-.08-5.8-.93-34.73-10.19-67.38-25.86-96.03-32.26-58.98-91.67-100.99-161.43-109.21h75.59c29.39,0,61.57-10.08,81.52-30.97,21.42-22.42,35.21-53.98,30.23-92.26h212.23Z" style="fill:url(#uuid-409e5669-69f3-4f4b-8615-dcda22388943)"></path><path d="M394.99,123.73c-29.87,3.51-57.84,13.23-82.59,27.82-62.38,36.76-104.35,104.46-104.78,182-.01,.41-.01,.81-.01,1.22,0,.45,0,.9,.01,1.35v139.33h-9.39c1.6-3.67,3.03-7.55,4.25-11.57,2.56-8.37,4.21-17.31,4.55-26.11,.03-.47,.04-.95,.05-1.42,.03-.91,.04-1.81,.04-2.72,0-36.76-19.35-69-48.42-87.09-15.7-9.79-34.25-15.44-54.11-15.44-6.74,0-13.33,.65-19.71,1.89-28.9,5.63-53.45,23.39-68.15,47.78-9.46-21.59-14.66-45.17-14.66-69.87,0-100.91,86.83-183.17,195.53-187.03,2.65-.09,5.32-.14,7.99-.14h189.4Z" style="fill:url(#uuid-9885ef6d-593f-4e5e-a827-1d86a8e7352b)"></path><path d="M602.4,92.76c-19.95,20.89-52.13,30.97-81.52,30.97h-75.59c-8.25-.98-16.64-1.48-25.15-1.48s-16.9,.5-25.15,1.48H197.6v.14C88.9,127.73,2.07,209.99,2.07,310.9c0,24.7,5.2,48.28,14.66,69.87-9.31,15.43-14.66,33.52-14.66,52.86,0,14.9,3.17,29.05,8.88,41.82H.5V122.19C89.44,120.29,164.11,69.63,188.87,.5h443.76c4.98,38.28-8.81,69.84-30.23,92.26Z" style="fill:url(#uuid-3bc1ff26-5eb9-44df-8503-35f34c9a0ff0)"></path></g></g></svg>
